<svg fill="#000000" xmlns="http://www.w3.org/2000/svg"  viewBox="0 0 30 32" ><path fill="none" stroke="#80deea" stroke-miterlimit="10" stroke-width="2" d="M16 10A13 6 0 1 0 16 22A13 6 0 1 0 16 10Z"/><path fill="none" stroke="#80deea" stroke-miterlimit="10" stroke-width="2" d="M16 10A13 6 0 1 0 16 22A13 6 0 1 0 16 10Z" transform="rotate(-60 16 16)"/><path fill="none" stroke="#80deea" stroke-miterlimit="10" stroke-width="2" d="M16 3A6 13 0 1 0 16 29A6 13 0 1 0 16 3Z" transform="rotate(-30 16 16)"/><path fill="none" stroke="#80deea" stroke-miterlimit="10" stroke-width="2" d="M16 14A2 2 0 1 0 16 18A2 2 0 1 0 16 14Z"/></svg>